<svg xmlns="http://www.w3.org/2000/svg" viewBox="0 0 1020 159.43"><defs><style>.cls-1{fill:#4452ff;}.cls-2{fill:#846ffb;}.cls-3{fill:#00ab7d;}</style></defs><g id="Layer_2" data-name="Layer 2"><g id="Layer_1-2" data-name="Layer 1"><path class="cls-1" d="M1019.52,4c-7.25,0-14.15,4.89-19.42,13.78-6,10.14-14.14,15.73-22.86,15.73h0c-8.72,0-16.84-5.59-22.86-15.73C949.12,8.91,942.24,4,935,4V4l-.48,0c-7.25,0-14.15,4.89-19.42,13.78-6,10.14-14.14,15.73-22.86,15.73h0c-8.72,0-16.84-5.59-22.86-15.73C864.12,8.91,857.24,4,850,4V4l-.48,0c-7.25,0-14.15,4.89-19.42,13.78-6,10.14-14.14,15.73-22.86,15.73h0c-8.72,0-16.84-5.59-22.86-15.73C779.12,8.91,772.24,4,765,4V4l-.48,0c-7.25,0-14.15,4.89-19.42,13.78-6,10.14-14.14,15.73-22.86,15.73h0c-8.72,0-16.84-5.59-22.86-15.73C694.12,8.91,687.24,4,680,4V4l-.48,0c-7.25,0-14.15,4.89-19.42,13.78-6,10.14-14.14,15.73-22.86,15.73h0c-8.72,0-16.84-5.59-22.86-15.73C609.12,8.91,602.24,4,595,4V4l-.48,0c-7.25,0-14.15,4.89-19.42,13.78-6,10.14-14.14,15.73-22.86,15.73h0c-8.72,0-16.84-5.59-22.86-15.73C524.12,8.91,517.24,4,510,4V4l-.48,0c-7.25,0-14.15,4.89-19.42,13.78-6,10.14-14.14,15.73-22.86,15.73h0c-8.72,0-16.84-5.59-22.86-15.73C439.12,8.91,432.24,4,425,4V4l-.48,0c-7.25,0-14.15,4.89-19.42,13.78-6,10.14-14.14,15.73-22.86,15.73h0c-8.72,0-16.84-5.59-22.86-15.73C354.12,8.91,347.24,4,340,4V4l-.48,0c-7.25,0-14.15,4.89-19.42,13.78-6,10.14-14.14,15.73-22.86,15.73h0c-8.72,0-16.84-5.59-22.86-15.73C269.12,8.91,262.24,4,255,4V4l-.48,0c-7.25,0-14.15,4.89-19.42,13.78-6,10.14-14.14,15.73-22.86,15.73h0c-8.72,0-16.84-5.59-22.86-15.73C184.12,8.91,177.24,4,170,4V4l-.48,0c-7.25,0-14.15,4.89-19.42,13.78-6,10.14-14.14,15.73-22.86,15.73h0c-8.72,0-16.84-5.59-22.86-15.73C99.12,8.91,92.24,4,85,4V4l-.48,0C77.27,4,70.37,8.89,65.1,17.78,59.08,27.92,51,33.51,42.24,33.51h0c-8.72,0-16.84-5.59-22.86-15.73C14.12,8.91,7.24,4,0,4V41.92c8.71,0,16.81,5.6,22.82,15.73C28.09,66.53,35,71.43,42.24,71.43s14.15-4.89,19.42-13.78c6-10.14,14.14-15.73,22.86-15.73l.48,0v0c8.71,0,16.81,5.6,22.82,15.73,5.27,8.88,12.17,13.78,19.42,13.78s14.15-4.89,19.42-13.78c6-10.14,14.14-15.73,22.86-15.73l.48,0v0c8.71,0,16.81,5.6,22.82,15.73,5.27,8.88,12.17,13.78,19.42,13.78s14.15-4.89,19.42-13.78c6-10.14,14.14-15.73,22.86-15.73l.48,0v0c8.71,0,16.81,5.6,22.82,15.73,5.27,8.88,12.17,13.78,19.42,13.78s14.15-4.89,19.42-13.78c6-10.14,14.14-15.73,22.86-15.73l.48,0v0c8.71,0,16.81,5.6,22.82,15.73,5.27,8.88,12.17,13.78,19.42,13.78s14.15-4.89,19.42-13.78c6-10.14,14.14-15.73,22.86-15.73l.48,0v0c8.71,0,16.81,5.6,22.82,15.73,5.27,8.88,12.17,13.78,19.42,13.78s14.15-4.89,19.42-13.78c6-10.14,14.14-15.73,22.86-15.73l.48,0v0c8.71,0,16.81,5.6,22.82,15.73,5.27,8.88,12.17,13.78,19.42,13.78s14.15-4.89,19.42-13.78c6-10.14,14.14-15.73,22.86-15.73l.48,0v0c8.71,0,16.81,5.6,22.82,15.73,5.27,8.88,12.17,13.78,19.42,13.78s14.15-4.89,19.42-13.78c6-10.14,14.14-15.73,22.86-15.73l.48,0v0c8.71,0,16.81,5.6,22.82,15.73,5.27,8.88,12.17,13.78,19.42,13.78s14.15-4.89,19.42-13.78c6-10.14,14.14-15.73,22.86-15.73l.48,0v0c8.71,0,16.81,5.6,22.82,15.73,5.27,8.88,12.17,13.78,19.42,13.78s14.15-4.89,19.42-13.78c6-10.14,14.14-15.73,22.86-15.73l.48,0v0c8.71,0,16.81,5.6,22.82,15.73,5.27,8.88,12.17,13.78,19.42,13.78s14.15-4.89,19.42-13.78c6-10.14,14.14-15.73,22.86-15.73l.48,0v0c8.71,0,16.81,5.6,22.82,15.73,5.27,8.88,12.17,13.78,19.42,13.78s14.15-4.89,19.42-13.78c6-10.14,14.14-15.73,22.86-15.73l.48,0V4Z"/><path class="cls-2" d="M1019.52,46c-7.25,0-14.15,4.89-19.42,13.78-6,10.14-14.14,15.73-22.86,15.73s-16.83-5.59-22.86-15.73C949.12,50.91,942.24,46,935,46v0l-.48,0c-7.25,0-14.15,4.89-19.42,13.78-6,10.14-14.14,15.73-22.86,15.73s-16.83-5.59-22.86-15.73C864.12,50.91,857.24,46,850,46v0l-.48,0c-7.25,0-14.15,4.89-19.42,13.78-6,10.14-14.14,15.73-22.86,15.73s-16.83-5.59-22.86-15.73C779.12,50.91,772.24,46,765,46v0l-.48,0c-7.25,0-14.15,4.89-19.42,13.78-6,10.14-14.14,15.73-22.86,15.73s-16.83-5.59-22.86-15.73C694.12,50.91,687.24,46,680,46v0l-.48,0c-7.25,0-14.15,4.89-19.42,13.78-6,10.14-14.14,15.73-22.86,15.73s-16.83-5.59-22.86-15.73C609.12,50.91,602.24,46,595,46v0l-.48,0c-7.25,0-14.15,4.89-19.42,13.78-6,10.14-14.14,15.73-22.86,15.73s-16.83-5.59-22.86-15.73C524.12,50.91,517.24,46,510,46v0l-.48,0c-7.25,0-14.15,4.89-19.42,13.78-6,10.14-14.14,15.73-22.86,15.73s-16.83-5.59-22.86-15.73C439.12,50.91,432.24,46,425,46v0l-.48,0c-7.25,0-14.15,4.89-19.42,13.78-6,10.14-14.14,15.73-22.86,15.73s-16.83-5.59-22.86-15.73C354.12,50.91,347.24,46,340,46v0l-.48,0c-7.25,0-14.15,4.89-19.42,13.78-6,10.14-14.14,15.73-22.86,15.73s-16.83-5.59-22.86-15.73C269.12,50.91,262.24,46,255,46v0l-.48,0c-7.25,0-14.15,4.89-19.42,13.78-6,10.14-14.14,15.73-22.86,15.73s-16.83-5.59-22.86-15.73C184.12,50.91,177.24,46,170,46v0l-.48,0c-7.25,0-14.15,4.89-19.42,13.78-6,10.14-14.14,15.73-22.86,15.73s-16.83-5.59-22.86-15.73C99.12,50.91,92.24,46,85,46v0l-.48,0c-7.25,0-14.15,4.89-19.42,13.78C59.08,69.92,51,75.51,42.24,75.51S25.41,69.92,19.38,59.78C14.12,50.91,7.24,46,0,46V83.92c8.71,0,16.81,5.6,22.82,15.73,5.27,8.89,12.17,13.78,19.42,13.78s14.15-4.89,19.42-13.78c6-10.14,14.14-15.73,22.86-15.73l.48,0v0c8.71,0,16.81,5.6,22.82,15.73,5.27,8.89,12.17,13.78,19.42,13.78s14.15-4.89,19.42-13.78c6-10.14,14.14-15.73,22.86-15.73l.48,0v0c8.71,0,16.81,5.6,22.82,15.73,5.27,8.89,12.17,13.78,19.42,13.78s14.15-4.89,19.42-13.78c6-10.14,14.14-15.73,22.86-15.73l.48,0v0c8.71,0,16.81,5.6,22.82,15.73,5.27,8.89,12.17,13.78,19.42,13.78s14.15-4.89,19.42-13.78c6-10.14,14.14-15.73,22.86-15.73l.48,0v0c8.71,0,16.81,5.6,22.82,15.73,5.27,8.89,12.17,13.78,19.42,13.78s14.15-4.89,19.42-13.78c6-10.14,14.14-15.73,22.86-15.73l.48,0v0c8.71,0,16.81,5.6,22.82,15.73,5.27,8.89,12.17,13.78,19.42,13.78s14.15-4.89,19.42-13.78c6-10.14,14.14-15.73,22.86-15.73l.48,0v0c8.71,0,16.81,5.6,22.82,15.73,5.27,8.89,12.17,13.78,19.42,13.78s14.15-4.89,19.42-13.78c6-10.14,14.14-15.73,22.86-15.73l.48,0v0c8.71,0,16.81,5.6,22.82,15.73,5.27,8.89,12.17,13.78,19.42,13.78s14.15-4.89,19.42-13.78c6-10.14,14.14-15.73,22.86-15.73l.48,0v0c8.71,0,16.81,5.6,22.82,15.73,5.27,8.89,12.17,13.78,19.42,13.78s14.15-4.89,19.42-13.78c6-10.14,14.14-15.73,22.86-15.73l.48,0v0c8.71,0,16.81,5.6,22.82,15.73,5.27,8.89,12.17,13.78,19.42,13.78s14.15-4.89,19.42-13.78c6-10.14,14.14-15.73,22.86-15.73l.48,0v0c8.71,0,16.81,5.6,22.82,15.73,5.27,8.89,12.17,13.78,19.42,13.78s14.15-4.89,19.42-13.78c6-10.14,14.14-15.73,22.86-15.73l.48,0v0c8.71,0,16.81,5.6,22.82,15.73,5.27,8.89,12.17,13.78,19.42,13.78s14.15-4.89,19.42-13.78c6-10.14,14.14-15.73,22.86-15.73l.48,0V46Z"/><path class="cls-3" d="M1019.52,88c-7.25,0-14.15,4.89-19.42,13.78-6,10.14-14.14,15.73-22.86,15.73s-16.83-5.59-22.86-15.73C949.12,92.91,942.24,88,935,88v0l-.48,0c-7.25,0-14.15,4.89-19.42,13.78-6,10.14-14.14,15.73-22.86,15.73s-16.83-5.59-22.86-15.73C864.12,92.91,857.24,88,850,88v0l-.48,0c-7.25,0-14.15,4.89-19.42,13.78-6,10.14-14.14,15.73-22.86,15.73s-16.83-5.59-22.86-15.73C779.12,92.91,772.24,88,765,88v0l-.48,0c-7.25,0-14.15,4.89-19.42,13.78-6,10.14-14.14,15.73-22.86,15.73s-16.83-5.59-22.86-15.73C694.12,92.91,687.24,88,680,88v0l-.48,0c-7.25,0-14.15,4.89-19.42,13.78-6,10.14-14.14,15.73-22.86,15.73s-16.83-5.59-22.86-15.73C609.12,92.91,602.24,88,595,88v0l-.48,0c-7.25,0-14.15,4.89-19.42,13.78-6,10.14-14.14,15.73-22.86,15.73s-16.83-5.59-22.86-15.73C524.12,92.91,517.24,88,510,88v0l-.48,0c-7.25,0-14.15,4.89-19.42,13.78-6,10.14-14.14,15.73-22.86,15.73s-16.83-5.59-22.86-15.73C439.12,92.91,432.24,88,425,88v0l-.48,0c-7.25,0-14.15,4.89-19.42,13.78-6,10.14-14.14,15.73-22.86,15.73s-16.83-5.59-22.86-15.73C354.12,92.91,347.24,88,340,88v0l-.48,0c-7.25,0-14.15,4.89-19.42,13.78-6,10.14-14.14,15.73-22.86,15.73s-16.83-5.59-22.86-15.73C269.12,92.91,262.24,88,255,88v0l-.48,0c-7.25,0-14.15,4.89-19.42,13.78-6,10.14-14.14,15.73-22.86,15.73s-16.83-5.59-22.86-15.73C184.12,92.91,177.24,88,170,88v0l-.48,0c-7.25,0-14.15,4.89-19.42,13.78-6,10.14-14.14,15.73-22.86,15.73s-16.83-5.59-22.86-15.73C99.12,92.91,92.24,88,85,88v0l-.48,0c-7.25,0-14.15,4.89-19.42,13.78-6,10.14-14.14,15.73-22.86,15.73s-16.83-5.59-22.86-15.73C14.12,92.91,7.24,88,0,88v37.92c8.71,0,16.81,5.6,22.82,15.73,5.27,8.89,12.17,13.78,19.42,13.78s14.15-4.89,19.42-13.78c6-10.14,14.14-15.73,22.86-15.73l.48,0v0c8.71,0,16.81,5.6,22.82,15.73,5.27,8.89,12.17,13.78,19.42,13.78s14.15-4.89,19.42-13.78c6-10.14,14.14-15.73,22.86-15.73l.48,0v0c8.71,0,16.81,5.6,22.82,15.73,5.27,8.89,12.17,13.78,19.42,13.78s14.15-4.89,19.42-13.78c6-10.14,14.14-15.73,22.86-15.73l.48,0v0c8.71,0,16.81,5.6,22.82,15.73,5.27,8.89,12.17,13.78,19.42,13.78s14.15-4.89,19.42-13.78c6-10.14,14.14-15.73,22.86-15.73l.48,0v0c8.71,0,16.81,5.6,22.82,15.73,5.27,8.89,12.17,13.78,19.42,13.78s14.15-4.89,19.42-13.78c6-10.14,14.14-15.73,22.86-15.73l.48,0v0c8.71,0,16.81,5.6,22.82,15.73,5.27,8.89,12.17,13.78,19.42,13.78s14.15-4.89,19.42-13.78c6-10.14,14.14-15.73,22.86-15.73l.48,0v0c8.71,0,16.81,5.6,22.82,15.73,5.27,8.89,12.17,13.78,19.42,13.78s14.15-4.89,19.42-13.78c6-10.14,14.14-15.73,22.86-15.73l.48,0v0c8.71,0,16.81,5.6,22.82,15.73,5.27,8.89,12.17,13.78,19.42,13.78s14.15-4.89,19.42-13.78c6-10.14,14.14-15.73,22.86-15.73l.48,0v0c8.71,0,16.81,5.6,22.82,15.73,5.27,8.89,12.17,13.78,19.42,13.78s14.15-4.89,19.42-13.78c6-10.14,14.14-15.73,22.86-15.73l.48,0v0c8.71,0,16.81,5.6,22.82,15.73,5.27,8.89,12.17,13.78,19.42,13.78s14.15-4.89,19.42-13.78c6-10.14,14.14-15.73,22.86-15.73l.48,0v0c8.71,0,16.81,5.6,22.82,15.73,5.27,8.89,12.17,13.78,19.42,13.78s14.15-4.89,19.42-13.78c6-10.14,14.14-15.73,22.86-15.73l.48,0v0c8.71,0,16.81,5.6,22.82,15.73,5.27,8.89,12.17,13.78,19.42,13.78s14.15-4.89,19.42-13.78c6-10.14,14.14-15.73,22.86-15.73l.48,0V88Z"/><path d="M1019.52,0c-8.72,0-16.84,5.59-22.86,15.73-5.27,8.89-12.17,13.78-19.42,13.78s-14.15-4.89-19.42-13.78C951.81,5.6,943.71,0,935,0V0l-.48,0c-8.72,0-16.84,5.59-22.86,15.73-5.27,8.89-12.17,13.78-19.42,13.78s-14.15-4.89-19.42-13.78C866.81,5.6,858.71,0,850,0V0l-.48,0c-8.72,0-16.84,5.59-22.86,15.73-5.27,8.89-12.17,13.78-19.42,13.78s-14.15-4.89-19.42-13.78C781.81,5.6,773.71,0,765,0V0l-.48,0c-8.72,0-16.84,5.59-22.86,15.73-5.27,8.89-12.17,13.78-19.42,13.78s-14.15-4.89-19.42-13.78C696.81,5.6,688.71,0,680,0V0l-.48,0c-8.72,0-16.84,5.59-22.86,15.73-5.27,8.89-12.17,13.78-19.42,13.78s-14.15-4.89-19.42-13.78C611.81,5.6,603.71,0,595,0V0l-.48,0c-8.72,0-16.84,5.59-22.86,15.73-5.27,8.89-12.17,13.78-19.42,13.78s-14.15-4.89-19.42-13.78C526.81,5.6,518.71,0,510,0V0l-.48,0c-8.72,0-16.84,5.59-22.86,15.73-5.27,8.89-12.17,13.78-19.42,13.78s-14.15-4.89-19.42-13.78C441.81,5.6,433.71,0,425,0V0l-.48,0c-8.72,0-16.84,5.59-22.86,15.73-5.27,8.89-12.17,13.78-19.42,13.78s-14.15-4.89-19.42-13.78C356.81,5.6,348.71,0,340,0V0l-.48,0c-8.72,0-16.84,5.59-22.86,15.73-5.27,8.89-12.17,13.78-19.42,13.78s-14.15-4.89-19.42-13.78C271.81,5.6,263.71,0,255,0V0l-.48,0c-8.72,0-16.84,5.59-22.86,15.73-5.27,8.89-12.17,13.78-19.42,13.78s-14.15-4.89-19.42-13.78C186.81,5.6,178.71,0,170,0V0l-.48,0c-8.72,0-16.84,5.59-22.86,15.73-5.27,8.89-12.17,13.78-19.42,13.78s-14.15-4.89-19.42-13.78C101.81,5.6,93.71,0,85,0V0l-.48,0C75.8,0,67.68,5.59,61.66,15.73c-5.27,8.89-12.17,13.78-19.42,13.78S28.09,24.62,22.82,15.73C16.81,5.6,8.71,0,0,0V4C7.24,4,14.12,8.91,19.38,17.78c6,10.14,14.14,15.73,22.86,15.73h0c8.72,0,16.84-5.59,22.86-15.73C70.37,8.89,77.27,4,84.52,4L85,4V4c7.24,0,14.12,4.91,19.38,13.78,6,10.14,14.14,15.73,22.86,15.73h0c8.72,0,16.84-5.59,22.86-15.73C155.37,8.89,162.27,4,169.52,4L170,4V4c7.24,0,14.12,4.91,19.38,13.78,6,10.14,14.14,15.73,22.86,15.73h0c8.72,0,16.84-5.59,22.86-15.73C240.37,8.89,247.27,4,254.52,4L255,4V4c7.24,0,14.12,4.91,19.38,13.78,6,10.14,14.14,15.73,22.86,15.73h0c8.72,0,16.84-5.59,22.86-15.73C325.37,8.89,332.27,4,339.52,4L340,4V4c7.24,0,14.12,4.91,19.38,13.78,6,10.14,14.14,15.73,22.86,15.73h0c8.72,0,16.84-5.59,22.86-15.73C410.37,8.89,417.27,4,424.52,4L425,4V4c7.24,0,14.12,4.91,19.38,13.78,6,10.14,14.14,15.73,22.86,15.73h0c8.72,0,16.84-5.59,22.86-15.73C495.37,8.89,502.27,4,509.52,4L510,4V4c7.24,0,14.12,4.91,19.38,13.78,6,10.14,14.14,15.73,22.86,15.73h0c8.72,0,16.84-5.59,22.86-15.73C580.37,8.89,587.27,4,594.52,4L595,4V4c7.24,0,14.12,4.91,19.38,13.78,6,10.14,14.14,15.73,22.86,15.73h0c8.72,0,16.84-5.59,22.86-15.73C665.37,8.89,672.27,4,679.52,4L680,4V4c7.24,0,14.12,4.91,19.38,13.78,6,10.14,14.14,15.73,22.86,15.73h0c8.72,0,16.84-5.59,22.86-15.73C750.37,8.89,757.27,4,764.52,4L765,4V4c7.24,0,14.12,4.91,19.38,13.78,6,10.14,14.14,15.73,22.86,15.73h0c8.72,0,16.84-5.59,22.86-15.73C835.37,8.89,842.27,4,849.52,4L850,4V4c7.24,0,14.12,4.91,19.38,13.78,6,10.14,14.14,15.73,22.86,15.73h0c8.72,0,16.84-5.59,22.86-15.73C920.37,8.89,927.27,4,934.52,4L935,4V4c7.24,0,14.12,4.91,19.38,13.78,6,10.14,14.14,15.73,22.86,15.73h0c8.72,0,16.84-5.59,22.86-15.73C1005.37,8.89,1012.27,4,1019.52,4l.48,0V0Z"/><path d="M996.66,57.65c-5.27,8.89-12.17,13.78-19.42,13.78s-14.15-4.9-19.42-13.78c-6-10.13-14.11-15.72-22.82-15.73v0l-.48,0c-8.72,0-16.84,5.59-22.86,15.73-5.27,8.89-12.17,13.78-19.42,13.78s-14.15-4.9-19.42-13.78c-6-10.13-14.11-15.72-22.82-15.73v0l-.48,0c-8.72,0-16.84,5.59-22.86,15.73-5.27,8.89-12.17,13.78-19.42,13.78s-14.15-4.9-19.42-13.78c-6-10.13-14.11-15.72-22.82-15.73v0l-.48,0c-8.72,0-16.84,5.59-22.86,15.73-5.27,8.89-12.17,13.78-19.42,13.78s-14.15-4.9-19.42-13.78c-6-10.13-14.11-15.72-22.82-15.73v0l-.48,0c-8.72,0-16.84,5.59-22.86,15.73-5.27,8.89-12.17,13.78-19.42,13.78s-14.15-4.9-19.42-13.78c-6-10.13-14.11-15.72-22.82-15.73v0l-.48,0c-8.72,0-16.84,5.59-22.86,15.73-5.27,8.89-12.17,13.78-19.42,13.78s-14.15-4.9-19.42-13.78c-6-10.13-14.11-15.72-22.82-15.73v0l-.48,0c-8.72,0-16.84,5.59-22.86,15.73-5.27,8.89-12.17,13.78-19.42,13.78s-14.15-4.9-19.42-13.78c-6-10.13-14.11-15.72-22.82-15.73v0l-.48,0c-8.72,0-16.84,5.59-22.86,15.73-5.27,8.89-12.17,13.78-19.42,13.78s-14.15-4.9-19.42-13.78c-6-10.13-14.11-15.72-22.82-15.73v0l-.48,0c-8.72,0-16.84,5.59-22.86,15.73-5.27,8.89-12.17,13.78-19.42,13.78s-14.15-4.9-19.42-13.78c-6-10.13-14.11-15.72-22.82-15.73v0l-.48,0c-8.72,0-16.84,5.59-22.86,15.73-5.27,8.89-12.17,13.78-19.42,13.78s-14.15-4.9-19.42-13.78c-6-10.13-14.11-15.72-22.82-15.73v0l-.48,0c-8.72,0-16.84,5.59-22.86,15.73-5.27,8.89-12.17,13.78-19.42,13.78s-14.15-4.9-19.42-13.78c-6-10.13-14.11-15.72-22.82-15.73v0l-.48,0c-8.72,0-16.84,5.59-22.86,15.73-5.27,8.89-12.17,13.78-19.42,13.78s-14.15-4.9-19.42-13.78C16.81,47.52,8.71,41.93,0,41.92V46c7.24,0,14.12,4.91,19.38,13.78,6,10.14,14.14,15.73,22.86,15.73S59.08,69.92,65.1,59.78C70.37,50.89,77.27,46,84.52,46L85,46v0c7.24,0,14.12,4.91,19.38,13.78,6,10.14,14.14,15.73,22.86,15.73s16.84-5.59,22.86-15.73C155.37,50.89,162.27,46,169.52,46l.48,0v0c7.24,0,14.12,4.91,19.38,13.78,6,10.14,14.14,15.73,22.86,15.73s16.84-5.59,22.86-15.73C240.37,50.89,247.27,46,254.52,46l.48,0v0c7.24,0,14.12,4.91,19.38,13.78,6,10.14,14.14,15.73,22.86,15.73s16.84-5.59,22.86-15.73C325.37,50.89,332.27,46,339.52,46l.48,0v0c7.24,0,14.12,4.91,19.38,13.78,6,10.14,14.14,15.73,22.86,15.73s16.84-5.59,22.86-15.73C410.37,50.89,417.27,46,424.52,46l.48,0v0c7.24,0,14.12,4.91,19.38,13.78,6,10.14,14.14,15.73,22.86,15.73s16.84-5.59,22.86-15.73C495.37,50.89,502.27,46,509.52,46l.48,0v0c7.24,0,14.12,4.91,19.38,13.78,6,10.14,14.14,15.73,22.86,15.73s16.84-5.59,22.86-15.73C580.37,50.89,587.27,46,594.52,46l.48,0v0c7.24,0,14.12,4.91,19.38,13.78,6,10.14,14.14,15.73,22.86,15.73s16.84-5.59,22.86-15.73C665.37,50.89,672.27,46,679.52,46l.48,0v0c7.24,0,14.12,4.91,19.38,13.78,6,10.14,14.14,15.73,22.86,15.73s16.84-5.59,22.86-15.73C750.37,50.89,757.27,46,764.52,46l.48,0v0c7.24,0,14.12,4.91,19.38,13.78,6,10.14,14.14,15.73,22.86,15.73s16.84-5.59,22.86-15.73C835.37,50.89,842.27,46,849.52,46l.48,0v0c7.24,0,14.12,4.91,19.38,13.78,6,10.14,14.14,15.73,22.86,15.73s16.84-5.59,22.86-15.73C920.37,50.89,927.27,46,934.52,46l.48,0v0c7.24,0,14.12,4.91,19.38,13.78,6,10.14,14.14,15.73,22.86,15.73s16.84-5.59,22.86-15.73c5.27-8.89,12.17-13.78,19.42-13.78l.48,0V41.94l-.48,0C1010.8,41.92,1002.68,47.51,996.66,57.65Z"/><path d="M996.66,99.65c-5.27,8.89-12.17,13.78-19.42,13.78s-14.15-4.89-19.42-13.78c-6-10.13-14.11-15.72-22.82-15.73v0l-.48,0c-8.72,0-16.84,5.59-22.86,15.73-5.27,8.89-12.17,13.78-19.42,13.78s-14.15-4.89-19.42-13.78c-6-10.13-14.11-15.72-22.82-15.73v0l-.48,0c-8.72,0-16.84,5.59-22.86,15.73-5.27,8.89-12.17,13.78-19.42,13.78s-14.15-4.89-19.42-13.78c-6-10.13-14.11-15.72-22.82-15.73v0l-.48,0c-8.72,0-16.84,5.59-22.86,15.73-5.27,8.89-12.17,13.78-19.42,13.78s-14.15-4.89-19.42-13.78c-6-10.13-14.11-15.72-22.82-15.73v0l-.48,0c-8.72,0-16.84,5.59-22.86,15.73-5.27,8.89-12.17,13.78-19.42,13.78s-14.15-4.89-19.42-13.78c-6-10.13-14.11-15.72-22.82-15.73v0l-.48,0c-8.72,0-16.84,5.59-22.86,15.73-5.27,8.89-12.17,13.78-19.42,13.78s-14.15-4.89-19.42-13.78c-6-10.13-14.11-15.72-22.82-15.73v0l-.48,0c-8.72,0-16.84,5.59-22.86,15.73-5.27,8.89-12.17,13.78-19.42,13.78s-14.15-4.89-19.42-13.78c-6-10.13-14.11-15.72-22.82-15.73v0l-.48,0c-8.72,0-16.84,5.59-22.86,15.73-5.27,8.89-12.17,13.78-19.42,13.78s-14.15-4.89-19.42-13.78c-6-10.13-14.11-15.72-22.82-15.73v0l-.48,0c-8.72,0-16.84,5.59-22.86,15.73-5.27,8.89-12.17,13.78-19.42,13.78s-14.15-4.89-19.42-13.78c-6-10.13-14.11-15.72-22.82-15.73v0l-.48,0c-8.72,0-16.84,5.59-22.86,15.73-5.27,8.89-12.17,13.78-19.42,13.78s-14.15-4.89-19.42-13.78c-6-10.13-14.11-15.72-22.82-15.73v0l-.48,0c-8.72,0-16.84,5.59-22.86,15.73-5.27,8.89-12.17,13.78-19.42,13.78s-14.15-4.89-19.42-13.78c-6-10.13-14.11-15.72-22.82-15.73v0l-.48,0c-8.72,0-16.84,5.59-22.86,15.73-5.27,8.89-12.17,13.78-19.42,13.78s-14.15-4.89-19.42-13.78C16.81,89.52,8.71,83.93,0,83.92V88c7.24,0,14.12,4.91,19.38,13.78,6,10.14,14.14,15.73,22.86,15.73s16.84-5.59,22.86-15.73C70.37,92.89,77.27,88,84.52,88L85,88v0c7.24,0,14.12,4.91,19.38,13.78,6,10.14,14.14,15.73,22.86,15.73s16.84-5.59,22.86-15.73C155.37,92.89,162.27,88,169.52,88l.48,0v0c7.24,0,14.12,4.91,19.38,13.78,6,10.14,14.14,15.73,22.86,15.73s16.84-5.59,22.86-15.73C240.37,92.89,247.27,88,254.52,88l.48,0v0c7.24,0,14.12,4.91,19.38,13.78,6,10.14,14.14,15.73,22.86,15.73s16.84-5.59,22.86-15.73C325.37,92.89,332.27,88,339.52,88l.48,0v0c7.24,0,14.12,4.91,19.38,13.78,6,10.14,14.14,15.73,22.86,15.73s16.84-5.59,22.86-15.73C410.37,92.89,417.27,88,424.52,88l.48,0v0c7.24,0,14.12,4.91,19.38,13.78,6,10.14,14.14,15.73,22.86,15.73s16.84-5.59,22.86-15.73C495.37,92.89,502.27,88,509.52,88l.48,0v0c7.24,0,14.12,4.91,19.38,13.78,6,10.14,14.14,15.73,22.86,15.73s16.84-5.59,22.86-15.73C580.37,92.89,587.27,88,594.52,88l.48,0v0c7.24,0,14.12,4.91,19.38,13.78,6,10.14,14.14,15.73,22.86,15.73s16.84-5.59,22.86-15.73C665.37,92.89,672.27,88,679.52,88l.48,0v0c7.24,0,14.12,4.91,19.38,13.78,6,10.14,14.14,15.73,22.86,15.73s16.84-5.59,22.86-15.73C750.37,92.89,757.27,88,764.52,88l.48,0v0c7.24,0,14.12,4.91,19.38,13.78,6,10.14,14.14,15.73,22.86,15.73s16.84-5.59,22.86-15.73C835.37,92.89,842.27,88,849.52,88l.48,0v0c7.24,0,14.12,4.91,19.38,13.78,6,10.14,14.14,15.73,22.86,15.73s16.84-5.59,22.86-15.73C920.37,92.89,927.27,88,934.52,88l.48,0v0c7.24,0,14.12,4.91,19.38,13.78,6,10.14,14.14,15.73,22.86,15.73s16.84-5.59,22.86-15.73c5.27-8.89,12.17-13.78,19.42-13.78l.48,0V83.94l-.48,0C1010.8,83.92,1002.68,89.51,996.66,99.65Z"/><path d="M996.66,141.65c-5.27,8.89-12.17,13.78-19.42,13.78s-14.15-4.89-19.42-13.78c-6-10.13-14.11-15.72-22.82-15.73v0l-.48,0c-8.72,0-16.84,5.59-22.86,15.73-5.27,8.89-12.17,13.78-19.42,13.78s-14.15-4.89-19.42-13.78c-6-10.13-14.11-15.72-22.82-15.73v0l-.48,0c-8.72,0-16.84,5.59-22.86,15.73-5.27,8.89-12.17,13.78-19.42,13.78s-14.15-4.89-19.42-13.78c-6-10.13-14.11-15.72-22.82-15.73v0l-.48,0c-8.72,0-16.84,5.59-22.86,15.73-5.27,8.89-12.17,13.78-19.42,13.78s-14.15-4.89-19.42-13.78c-6-10.13-14.11-15.72-22.82-15.73v0l-.48,0c-8.72,0-16.84,5.59-22.86,15.73-5.27,8.89-12.17,13.78-19.42,13.78s-14.15-4.89-19.42-13.78c-6-10.13-14.11-15.72-22.82-15.73v0l-.48,0c-8.72,0-16.84,5.59-22.86,15.73-5.27,8.89-12.17,13.78-19.42,13.78s-14.15-4.89-19.42-13.78c-6-10.13-14.11-15.72-22.82-15.73v0l-.48,0c-8.72,0-16.84,5.59-22.86,15.73-5.27,8.89-12.17,13.78-19.42,13.78s-14.15-4.89-19.42-13.78c-6-10.13-14.11-15.72-22.82-15.73v0l-.48,0c-8.72,0-16.84,5.59-22.86,15.73-5.27,8.89-12.17,13.78-19.42,13.78s-14.15-4.89-19.42-13.78c-6-10.13-14.11-15.72-22.82-15.73v0l-.48,0c-8.72,0-16.84,5.59-22.86,15.73-5.27,8.89-12.17,13.78-19.42,13.78s-14.15-4.89-19.42-13.78c-6-10.13-14.11-15.72-22.82-15.73v0l-.48,0c-8.72,0-16.84,5.59-22.86,15.73-5.27,8.89-12.17,13.78-19.42,13.78s-14.15-4.89-19.42-13.78c-6-10.13-14.11-15.72-22.82-15.73v0l-.48,0c-8.72,0-16.84,5.59-22.86,15.73-5.27,8.89-12.17,13.78-19.42,13.78s-14.15-4.89-19.42-13.78c-6-10.13-14.11-15.72-22.82-15.73v0l-.48,0c-8.72,0-16.84,5.59-22.86,15.73-5.27,8.89-12.17,13.78-19.42,13.78s-14.15-4.89-19.42-13.78c-6-10.13-14.11-15.72-22.82-15.73v4c7.24,0,14.12,4.9,19.38,13.77,6,10.15,14.14,15.74,22.86,15.74s16.84-5.59,22.86-15.74c5.27-8.88,12.17-13.77,19.42-13.77l.48,0v0c7.24,0,14.12,4.9,19.38,13.77,6,10.15,14.14,15.74,22.86,15.74s16.84-5.59,22.86-15.74c5.27-8.88,12.17-13.77,19.42-13.77l.48,0v0c7.24,0,14.12,4.9,19.38,13.77,6,10.15,14.14,15.74,22.86,15.74s16.84-5.59,22.86-15.74c5.27-8.88,12.17-13.77,19.42-13.77l.48,0v0c7.24,0,14.12,4.9,19.38,13.77,6,10.15,14.14,15.74,22.86,15.74s16.84-5.59,22.86-15.74c5.27-8.88,12.17-13.77,19.42-13.77l.48,0v0c7.24,0,14.12,4.9,19.38,13.77,6,10.15,14.14,15.74,22.86,15.74s16.84-5.59,22.86-15.74c5.27-8.88,12.17-13.77,19.42-13.77l.48,0v0c7.24,0,14.12,4.9,19.38,13.77,6,10.15,14.14,15.74,22.86,15.74s16.84-5.59,22.86-15.74c5.27-8.88,12.17-13.77,19.42-13.77l.48,0v0c7.24,0,14.12,4.9,19.38,13.77,6,10.15,14.14,15.74,22.86,15.74s16.84-5.59,22.86-15.74c5.27-8.88,12.17-13.77,19.42-13.77l.48,0v0c7.24,0,14.12,4.9,19.38,13.77,6,10.15,14.14,15.74,22.86,15.74s16.84-5.59,22.86-15.74c5.27-8.88,12.17-13.77,19.42-13.77l.48,0v0c7.24,0,14.12,4.9,19.38,13.77,6,10.15,14.14,15.74,22.86,15.74s16.84-5.59,22.86-15.74c5.27-8.88,12.17-13.77,19.42-13.77l.48,0v0c7.24,0,14.12,4.9,19.38,13.77,6,10.15,14.14,15.74,22.86,15.74s16.84-5.59,22.86-15.74c5.27-8.88,12.17-13.77,19.42-13.77l.48,0v0c7.24,0,14.12,4.9,19.38,13.77,6,10.15,14.14,15.74,22.86,15.74s16.84-5.59,22.86-15.74c5.27-8.88,12.17-13.77,19.42-13.77l.48,0v0c7.24,0,14.12,4.9,19.38,13.77,6,10.15,14.14,15.74,22.86,15.74s16.84-5.59,22.86-15.74c5.27-8.88,12.17-13.77,19.42-13.77l.48,0v-4l-.48,0C1010.8,125.92,1002.68,131.51,996.66,141.65Z"/></g></g></svg>